<?xml version="1.0" encoding="UTF-8" standalone="no"?>
<!DOCTYPE svg PUBLIC "-//W3C//DTD SVG 1.1//EN" "http://www.w3.org/Graphics/SVG/1.1/DTD/svg11.dtd">
<svg width="100%" height="100%" viewBox="0 0 77 62" version="1.1" xmlns="http://www.w3.org/2000/svg" xmlns:xlink="http://www.w3.org/1999/xlink" xml:space="preserve" xmlns:serif="http://www.serif.com/" style="fill-rule:evenodd;clip-rule:evenodd;stroke-linejoin:round;stroke-miterlimit:2;">
    <g transform="matrix(1,0,0,1,-481.636,-564.779)">
        <g transform="matrix(1,0,0,1,-1076.1,-611.268)">
            <path d="M1606.78,1176.05C1607.17,1176.05 1607.54,1176.2 1607.82,1176.48C1608.09,1176.75 1608.25,1177.12 1608.25,1177.51C1608.25,1180.13 1608.25,1185.35 1608.25,1185.35L1620.79,1185.35C1621.55,1185.35 1622.22,1185.84 1622.45,1186.56C1623.81,1190.81 1628.29,1204.79 1628.29,1204.79L1632.37,1204.79C1633.17,1204.79 1633.83,1205.45 1633.83,1206.26C1633.83,1207.65 1633.83,1209.73 1633.83,1211.12C1633.83,1211.51 1633.68,1211.88 1633.4,1212.16C1633.13,1212.43 1632.75,1212.59 1632.37,1212.59L1630.66,1212.59C1630.66,1212.59 1631.01,1213.19 1631.32,1213.7C1631.59,1214.18 1631.74,1214.72 1631.74,1215.27C1631.74,1218.65 1631.74,1231.32 1631.74,1235.65C1631.74,1236.04 1631.59,1236.41 1631.31,1236.69C1631.04,1236.96 1630.66,1237.12 1630.28,1237.12C1627.32,1237.12 1620.65,1237.12 1617.69,1237.12C1617.31,1237.12 1616.93,1236.96 1616.66,1236.69C1616.38,1236.41 1616.23,1236.04 1616.23,1235.65C1616.23,1233.14 1616.23,1228.26 1616.23,1228.26L1575.33,1228.26L1575.33,1235.65C1575.33,1236.04 1575.18,1236.41 1574.9,1236.69C1574.63,1236.96 1574.26,1237.12 1573.87,1237.12C1570.91,1237.12 1564.25,1237.12 1561.29,1237.12C1560.9,1237.12 1560.53,1236.96 1560.25,1236.69C1559.98,1236.41 1559.82,1236.04 1559.82,1235.65C1559.82,1231.76 1559.82,1221.13 1559.82,1216.56C1559.82,1215.16 1560.19,1213.79 1560.9,1212.59C1560.9,1212.59 1560.9,1212.59 1560.9,1212.59L1559.2,1212.59C1558.81,1212.59 1558.43,1212.43 1558.16,1212.16C1557.89,1211.88 1557.73,1211.51 1557.73,1211.12C1557.73,1209.73 1557.73,1207.65 1557.73,1206.26C1557.73,1205.45 1558.39,1204.79 1559.2,1204.79C1560.84,1204.79 1563.27,1204.79 1563.27,1204.79C1563.27,1204.79 1567.75,1190.81 1569.12,1186.56C1569.35,1185.84 1570.02,1185.35 1570.77,1185.35C1574.19,1185.35 1583.32,1185.35 1583.32,1185.35L1583.32,1177.51C1583.32,1177.12 1583.47,1176.75 1583.74,1176.48C1584.02,1176.2 1584.39,1176.05 1584.78,1176.05C1589.2,1176.05 1602.36,1176.05 1606.78,1176.05ZM1575.69,1215.83L1615.87,1215.83C1615.87,1215.83 1611.74,1202.59 1610.44,1198.45C1610.22,1197.73 1609.54,1197.23 1608.78,1197.23C1604.04,1197.23 1587.52,1197.23 1582.78,1197.23C1582.02,1197.23 1581.35,1197.73 1581.12,1198.45C1579.83,1202.59 1575.69,1215.83 1575.69,1215.83Z" style="fill:rgb(249,211,22);"/>
        </g>
    </g>
</svg>
